<?xml version="1.0" standalone="no"?>
<svg xmlns="http://www.w3.org/2000/svg" width="20" height="20"><rect width="20" height="20" opacity="0"></rect><g><path d="M2.92 4.8Q3.36 4.8 3.58 4.58Q3.64 4.8 3.86 4.8Q3.96 4.8 4.06 4.72Q4.16 4.64 4.16 4.4L4.16 3.2Q4.16 2.7 3.88 2.42Q3.6 2.14 3.1 2.14Q2.84 2.14 2.61 2.23Q2.38 2.32 2.24 2.48Q2.14 2.58 2.14 2.7Q2.14 2.82 2.22 2.9Q2.3 2.98 2.4 2.98Q2.48 2.98 2.68 2.86Q2.88 2.7 3.08 2.7Q3.2 2.7 3.29 2.73Q3.38 2.76 3.44 2.87Q3.5 2.98 3.5 3.16Q3.22 3.12 3.06 3.12Q2.56 3.12 2.25 3.36Q1.94 3.6 1.94 3.98Q1.94 4.34 2.21 4.57Q2.48 4.8 2.92 4.8ZM3.1 3.64Q3.38 3.64 3.5 3.7L3.5 3.82Q3.5 4.06 3.35 4.16Q3.2 4.26 2.98 4.26Q2.8 4.26 2.7 4.18Q2.6 4.1 2.6 3.96Q2.6 3.78 2.76 3.71Q2.92 3.64 3.1 3.64ZM3.18 11.6Q3.44 11.6 3.67 11.45Q3.9 11.3 4.06 11.02Q4.2 10.7 4.2 10.4Q4.2 10.06 4.06 9.78Q3.92 9.5 3.68 9.34Q3.42 9.2 3.16 9.2Q2.82 9.2 2.56 9.42L2.56 8.6Q2.56 8.44 2.48 8.35Q2.4 8.26 2.28 8.26Q2.14 8.26 2.06 8.35Q1.98 8.44 1.98 8.6L1.98 11.22Q1.96 11.44 2.04 11.51Q2.12 11.58 2.26 11.58Q2.34 11.58 2.43 11.52Q2.52 11.46 2.52 11.34Q2.66 11.46 2.83 11.53Q3 11.6 3.18 11.6ZM3.1 9.76Q3.32 9.76 3.46 9.93Q3.6 10.1 3.6 10.4Q3.6 10.7 3.46 10.87Q3.32 11.04 3.1 11.04Q2.86 11.04 2.72 10.87Q2.58 10.7 2.58 10.4Q2.58 10.1 2.71 9.93Q2.84 9.76 3.1 9.76ZM3.28 17.88Q3.8 17.88 4.1 17.56Q4.22 17.44 4.21 17.31Q4.2 17.18 4.06 17.08Q3.94 17 3.83 17.03Q3.72 17.06 3.6 17.18Q3.5 17.28 3.28 17.28Q3 17.28 2.84 17.07Q2.68 16.86 2.68 16.5Q2.68 16.16 2.84 15.95Q3 15.74 3.28 15.74Q3.46 15.74 3.6 15.84L3.64 15.86Q3.8 15.98 3.88 16.01Q3.96 16.04 4.06 15.94Q4.2 15.8 4.2 15.7Q4.2 15.6 4.08 15.44Q3.82 15.14 3.28 15.14Q2.72 15.14 2.36 15.52Q2 15.9 2 16.5Q2 17.12 2.35 17.5Q2.7 17.88 3.28 17.88Z" fill="rgba(0,0,0,0.9019607843137255)"></path><path d="M17.42 4.2Q17.68 4.2 17.86 4.02Q18.04 3.84 18.04 3.58Q18.04 3.32 17.86 3.14Q17.68 2.96 17.42 2.96L6.16 2.96Q5.9 2.96 5.72 3.14Q5.54 3.32 5.54 3.58Q5.54 3.84 5.72 4.02Q5.9 4.2 6.16 4.2L17.42 4.2ZM17.42 10.66Q17.68 10.66 17.86 10.48Q18.04 10.3 18.04 10.04Q18.04 9.78 17.86 9.6Q17.68 9.42 17.42 9.42L6.16 9.42Q5.9 9.42 5.72 9.6Q5.54 9.78 5.54 10.04Q5.54 10.3 5.72 10.48Q5.9 10.66 6.16 10.66L17.42 10.66ZM17.42 17.12Q17.68 17.12 17.86 16.94Q18.04 16.76 18.04 16.5Q18.04 16.24 17.86 16.06Q17.68 15.88 17.42 15.88L6.16 15.88Q5.9 15.88 5.72 16.06Q5.54 16.24 5.54 16.5Q5.54 16.76 5.72 16.94Q5.9 17.12 6.16 17.12L17.42 17.12Z" fill="rgba(0,0,0,0.9019607843137255)"></path></g></svg>