<?xml version="1.0" standalone="no"?>
<svg xmlns="http://www.w3.org/2000/svg" width="28" height="28"><rect width="28" height="28" opacity="0"></rect><g mask="url(#hms_mask_0)"><path d="M22.18 25.68Q23.1 25.68 23.91 25.2Q24.72 24.72 25.2 23.91Q25.68 23.1 25.68 22.18L25.68 5.82Q25.68 4.9 25.2 4.09Q24.72 3.28 23.91 2.8Q23.1 2.32 22.18 2.32L5.82 2.32Q4.9 2.32 4.09 2.8Q3.28 3.28 2.8 4.09Q2.32 4.9 2.32 5.82L2.32 22.18Q2.32 23.1 2.8 23.91Q3.28 24.72 4.09 25.2Q4.9 25.68 5.82 25.68L22.18 25.68Z" fill="rgba(10,89,247,1)"></path></g><defs><mask id="hms_mask_0"><rect width="28" height="28" fill="#ffffff"></rect><g><path d="M8.29 13.02Q8.68 13.02 8.96 13.31Q9.24 13.61 9.24 14Q9.24 14.39 8.96 14.69Q8.68 14.98 8.29 14.98Q7.9 14.98 7.6 14.69Q7.31 14.39 7.31 14Q7.31 13.61 7.6 13.31Q7.9 13.02 8.29 13.02ZM8.29 18.06Q8.68 18.06 8.96 18.34Q9.24 18.62 9.24 19.04Q9.24 19.43 8.96 19.71Q8.68 19.99 8.29 19.99Q7.9 19.99 7.6 19.71Q7.31 19.43 7.31 19.04Q7.31 18.62 7.6 18.34Q7.9 18.06 8.29 18.06ZM11.06 9.83Q10.7 9.83 10.43 9.58Q10.16 9.32 10.16 8.96Q10.16 8.6 10.43 8.34Q10.7 8.09 11.06 8.09L19.82 8.09Q20.19 8.09 20.44 8.34Q20.69 8.6 20.69 8.96Q20.69 9.32 20.44 9.58Q20.19 9.83 19.8 9.83L11.06 9.83ZM11.06 14.87Q10.7 14.87 10.43 14.62Q10.16 14.36 10.16 14Q10.16 13.64 10.43 13.38Q10.7 13.13 11.06 13.13L19.82 13.13Q20.19 13.13 20.44 13.38Q20.69 13.64 20.69 14Q20.69 14.36 20.43 14.62Q20.16 14.87 19.8 14.87L11.06 14.87ZM11.06 19.91Q10.7 19.91 10.43 19.64Q10.16 19.38 10.16 19.04Q10.16 18.68 10.43 18.41Q10.7 18.14 11.06 18.14L19.82 18.14Q20.19 18.14 20.44 18.41Q20.69 18.68 20.69 19.04Q20.69 19.38 20.43 19.64Q20.16 19.91 19.8 19.91L11.06 19.91ZM8.29 8.01Q8.68 8.01 8.96 8.29Q9.24 8.57 9.24 8.96Q9.24 9.38 8.96 9.66Q8.68 9.94 8.29 9.94Q7.9 9.94 7.6 9.66Q7.31 9.38 7.31 8.96Q7.31 8.57 7.6 8.29Q7.9 8.01 8.29 8.01Z" fill="#000000"></path></g></mask></defs></svg>