<?xml version="1.0" standalone="no"?>
<svg xmlns="http://www.w3.org/2000/svg" width="20" height="20"><rect width="20" height="20" opacity="0"></rect><g><path d="M2.1 7.78Q2.1 6.3 2.63 5.24Q3.16 4.18 4.13 3.64Q5.1 3.1 6.44 3.1Q7.32 3.1 8.13 3.46Q8.94 3.82 9.56 4.48Q9.72 4.68 10 4.68Q10.3 4.68 10.46 4.48Q11.08 3.82 11.89 3.46Q12.7 3.1 13.56 3.1Q15.06 3.1 16.04 3.77Q17.02 4.44 17.46 5.5Q17.9 6.56 17.9 7.78Q17.9 9.3 16.2 11.6Q15.26 12.86 13.99 14.1Q12.72 15.34 11.6 16.13Q10.48 16.92 10 16.92Q9.52 16.92 8.46 16.15Q7.4 15.38 6.14 14.14Q4.88 12.9 3.86 11.6Q3.06 10.6 2.58 9.57Q2.1 8.54 2.1 7.78ZM13.56 1.86Q12.58 1.86 11.67 2.21Q10.76 2.56 10 3.2Q9.24 2.56 8.33 2.21Q7.42 1.86 6.44 1.86Q4.82 1.86 3.54 2.64Q2.26 3.42 1.55 4.73Q0.84 6.04 0.84 7.6Q0.84 8.98 1.81 10.71Q2.78 12.44 4.34 14.08Q6 15.82 7.57 16.98Q9.14 18.14 9.98 18.14Q10.92 18.14 12.43 17.01Q13.94 15.88 15.64 14.08Q17.18 12.48 18.17 10.74Q19.16 9 19.16 7.6Q19.16 6.04 18.44 4.73Q17.72 3.42 16.44 2.64Q15.16 1.86 13.56 1.86Z" fill="rgba(0,0,0,0.4)"></path></g></svg>