<?xml version="1.0" standalone="no"?>
<svg xmlns="http://www.w3.org/2000/svg" width="20" height="20"><rect width="20" height="20" opacity="0"></rect><g><path d="M10 9.14Q11.06 9.14 11.95 8.61Q12.84 8.08 13.37 7.18Q13.9 6.28 13.9 5.22Q13.9 4.16 13.37 3.26Q12.84 2.36 11.95 1.83Q11.06 1.3 10 1.3Q8.92 1.3 8.02 1.83Q7.12 2.36 6.6 3.26Q6.08 4.16 6.08 5.22Q6.08 6.28 6.6 7.18Q7.12 8.08 8.02 8.61Q8.92 9.14 10 9.14ZM10 2.54Q10.72 2.54 11.33 2.9Q11.94 3.26 12.3 3.88Q12.66 4.5 12.66 5.22Q12.66 5.94 12.3 6.55Q11.94 7.16 11.33 7.52Q10.72 7.88 10 7.88Q9.28 7.88 8.66 7.52Q8.04 7.16 7.68 6.55Q7.32 5.94 7.32 5.22Q7.32 4.5 7.68 3.88Q8.04 3.26 8.66 2.9Q9.28 2.54 10 2.54ZM15.62 18.38Q16.18 18.38 16.64 18.11Q17.1 17.84 17.37 17.38Q17.64 16.92 17.64 16.36Q17.64 14.66 16.6 13.23Q15.56 11.8 13.94 10.97Q12.32 10.14 10.66 10.14L9.32 10.14Q7.66 10.14 6.04 10.97Q4.42 11.8 3.39 13.23Q2.36 14.66 2.36 16.36Q2.36 16.92 2.63 17.38Q2.9 17.84 3.36 18.11Q3.82 18.38 4.36 18.38L15.62 18.38ZM10.66 11.4Q12 11.4 13.33 12.07Q14.66 12.74 15.52 13.88Q16.38 15.02 16.38 16.36Q16.38 16.68 16.16 16.91Q15.94 17.14 15.62 17.14L4.38 17.14Q4.06 17.14 3.83 16.91Q3.6 16.68 3.6 16.36Q3.6 15.02 4.46 13.88Q5.32 12.74 6.66 12.07Q8 11.4 9.34 11.4L10.66 11.4Z" fill="rgba(0,0,0,0.4)"></path></g></svg>