<?xml version="1.0" standalone="no"?>
<svg xmlns="http://www.w3.org/2000/svg" width="20" height="20"><rect width="20" height="20" opacity="0"></rect><g><path d="M6.7 13.28Q5.16 11.74 4 10.13Q2.84 8.52 2.2 6.98Q1.62 8.5 1.62 10.04Q1.62 12.3 2.74 14.21Q3.86 16.12 5.77 17.24Q7.68 18.36 9.94 18.36Q11.56 18.36 13 17.78Q10.92 16.74 9.58 15.78Q8.24 14.82 6.7 13.28ZM3 5.46Q3.46 7.18 4.72 8.99Q5.98 10.8 7.58 12.4Q9.16 14 10.98 15.26Q12.8 16.52 14.52 17Q16.24 15.86 17.26 14.02Q18.28 12.18 18.28 10.04Q18.28 7.78 17.16 5.86Q16.04 3.94 14.12 2.82Q12.2 1.7 9.94 1.7Q7.8 1.7 5.97 2.72Q4.14 3.74 3 5.46Z" fill="rgba(0,0,0,0.4)"></path><path d="M17.92 15.64Q17.66 15.6 17.45 15.74Q17.24 15.88 17.2 16.14Q17.1 16.58 16.86 16.82Q16.54 17.14 15.94 17.18Q15.34 17.22 14.52 17Q14.16 17.22 13.78 17.42Q13.4 17.62 13 17.78Q14.64 18.44 15.74 18.44Q16.38 18.44 16.88 18.26Q17.38 18.08 17.74 17.7Q18.26 17.2 18.42 16.36Q18.46 16.1 18.32 15.89Q18.18 15.68 17.92 15.64ZM2.28 2.22Q1.58 2.94 1.55 4.17Q1.52 5.4 2.2 6.98Q2.34 6.66 2.49 6.35Q2.64 6.04 2.82 5.74L3 5.46Q2.78 4.64 2.81 4.03Q2.84 3.42 3.16 3.1Q3.28 2.98 3.43 2.91Q3.58 2.84 3.8 2.8Q4.06 2.74 4.19 2.53Q4.32 2.32 4.28 2.06Q4.22 1.8 4 1.66Q3.78 1.52 3.54 1.58Q2.78 1.72 2.28 2.22Z" fill="rgba(0,0,0,0.4)"></path></g></svg>