<?xml version="1.0" standalone="no"?>
<svg xmlns="http://www.w3.org/2000/svg" width="30" height="30"><rect width="30" height="30" opacity="0"></rect><g><path d="M21.12 15.42Q21.78 15.42 22.41 15.17Q23.04 14.91 23.55 14.4L26.61 11.31Q27.27 10.65 27.51 9.77Q27.75 8.88 27.51 8Q27.27 7.11 26.61 6.45L23.55 3.36Q22.89 2.7 22.01 2.47Q21.12 2.25 20.24 2.47Q19.35 2.7 18.69 3.36L15.6 6.48Q14.94 7.14 14.7 8.02Q14.46 8.91 14.7 9.79Q14.94 10.68 15.6 11.34L18.69 14.43Q19.17 14.91 19.8 15.17Q20.43 15.42 21.12 15.42ZM21.12 4.23Q21.42 4.23 21.72 4.36Q22.02 4.5 22.23 4.71L25.32 7.8Q25.77 8.25 25.77 8.9Q25.77 9.54 25.32 9.99L22.23 13.08Q21.75 13.56 21.12 13.56Q20.49 13.56 20.01 13.08L16.92 9.99Q16.47 9.54 16.47 8.9Q16.47 8.25 16.92 7.8L20.01 4.71Q20.46 4.23 21.12 4.23ZM23.31 27.63Q24.24 27.63 25.02 27.17Q25.8 26.7 26.27 25.92Q26.73 25.14 26.73 24.21L26.73 19.83Q26.73 18.9 26.27 18.1Q25.8 17.31 25.02 16.85Q24.24 16.38 23.31 16.38L18.93 16.38Q18 16.38 17.2 16.85Q16.41 17.31 15.95 18.1Q15.48 18.9 15.48 19.83L15.48 24.21Q15.48 25.14 15.95 25.92Q16.41 26.7 17.2 27.17Q18 27.63 18.93 27.63L23.31 27.63ZM23.31 18.27Q23.94 18.27 24.4 18.72Q24.87 19.17 24.87 19.83L24.87 24.21Q24.87 24.84 24.4 25.31Q23.94 25.77 23.31 25.77L18.93 25.77Q18.27 25.77 17.82 25.31Q17.37 24.84 17.37 24.21L17.37 19.83Q17.37 19.17 17.82 18.72Q18.27 18.27 18.93 18.27L23.31 18.27ZM10.17 27.63Q11.1 27.63 11.9 27.17Q12.69 26.7 13.16 25.92Q13.62 25.14 13.62 24.21L13.62 19.83Q13.62 18.9 13.16 18.1Q12.69 17.31 11.9 16.85Q11.1 16.38 10.17 16.38L5.79 16.38Q4.86 16.38 4.08 16.85Q3.3 17.31 2.84 18.1Q2.37 18.9 2.37 19.83L2.37 24.21Q2.37 25.14 2.84 25.92Q3.3 26.7 4.08 27.17Q4.86 27.63 5.79 27.63L10.17 27.63ZM10.17 18.27Q10.8 18.27 11.26 18.72Q11.73 19.17 11.73 19.83L11.73 24.21Q11.73 24.84 11.26 25.31Q10.8 25.77 10.17 25.77L5.79 25.77Q5.16 25.77 4.69 25.31Q4.23 24.84 4.23 24.21L4.23 19.83Q4.23 19.17 4.69 18.72Q5.16 18.27 5.79 18.27L10.17 18.27ZM10.17 14.52Q11.1 14.52 11.9 14.06Q12.69 13.59 13.16 12.8Q13.62 12 13.62 11.07L13.62 6.69Q13.62 5.76 13.16 4.98Q12.69 4.2 11.9 3.73Q11.1 3.27 10.17 3.27L5.79 3.27Q4.86 3.27 4.08 3.73Q3.3 4.2 2.84 4.98Q2.37 5.76 2.37 6.69L2.37 11.07Q2.37 12 2.84 12.8Q3.3 13.59 4.08 14.06Q4.86 14.52 5.79 14.52L10.17 14.52ZM10.17 5.13Q10.8 5.13 11.26 5.59Q11.73 6.06 11.73 6.69L11.73 11.07Q11.73 11.73 11.26 12.18Q10.8 12.63 10.17 12.63L5.79 12.63Q5.16 12.63 4.69 12.18Q4.23 11.73 4.23 11.07L4.23 6.69Q4.23 6.06 4.69 5.59Q5.16 5.13 5.79 5.13L10.17 5.13Z" fill="rgba(255,255,255,1)"></path></g></svg>