<?xml version="1.0" standalone="no"?>
<svg xmlns="http://www.w3.org/2000/svg" width="30" height="30"><rect width="30" height="30" opacity="0"></rect><g><path d="M23.4 12.03L27.12 12.03Q27.3 12.03 27.44 11.9Q27.57 11.76 27.57 11.58Q27.57 11.4 27.45 11.28L23.85 7.74Q23.73 7.62 23.55 7.62Q23.37 7.62 23.24 7.74Q23.1 7.86 23.1 8.04L23.1 10.14L3.36 10.14Q2.97 10.14 2.7 10.41Q2.43 10.68 2.43 11.07Q2.43 11.46 2.7 11.75Q2.97 12.03 3.36 12.03ZM23.43 17.97L3.36 17.97Q2.97 17.97 2.7 18.24Q2.43 18.51 2.43 18.9Q2.43 19.29 2.7 19.56Q2.97 19.83 3.36 19.83L23.1 19.83L23.1 21.93Q23.1 22.11 23.24 22.23Q23.37 22.35 23.55 22.35Q23.73 22.35 23.85 22.23L27.45 18.72Q27.6 18.6 27.6 18.42Q27.6 18.24 27.47 18.1Q27.33 17.97 27.15 17.97Z" fill="rgba(255,255,255,1)"></path></g></svg>