<?xml version="1.0" standalone="no"?>
<svg xmlns="http://www.w3.org/2000/svg" width="32" height="32"><rect width="32" height="32" opacity="0"></rect><g mask="url(#hms_mask_0)"><path d="M16 1.34Q12 1.34 8.64 3.31Q5.28 5.28 3.31 8.64Q1.34 12 1.34 16Q1.34 20 3.31 23.36Q5.28 26.72 8.64 28.69Q12 30.66 16 30.66Q19.97 30.66 23.34 28.69Q26.72 26.72 28.69 23.34Q30.66 19.97 30.66 16Q30.66 12.03 28.69 8.66Q26.72 5.28 23.34 3.31Q19.97 1.34 16 1.34Z" fill="rgba(232,64,38,1)"></path></g><defs><mask id="hms_mask_0"><rect width="32" height="32" fill="#ffffff"></rect><g><path d="M22.11 14.88Q22.53 15.14 22.69 15.58Q22.85 16.03 22.69 16.46Q22.53 16.9 22.11 17.15L13.92 21.86Q13.5 22.11 13.06 22.02Q12.61 21.92 12.3 21.57Q12 21.22 12 20.74L12 11.3Q12 10.82 12.3 10.46Q12.61 10.11 13.06 10.02Q13.5 9.92 13.92 10.18L22.11 14.88Z" fill="#000000"></path></g></mask></defs></svg>