<?xml version="1.0" standalone="no"?>
<svg xmlns="http://www.w3.org/2000/svg" width="30" height="30"><rect width="30" height="30" opacity="0"></rect><g><path d="M20.82 9.09L24.54 9.09Q24.72 9.09 24.86 8.95Q24.99 8.82 24.99 8.64Q24.99 8.46 24.84 8.31L21.24 4.8Q21.12 4.65 20.94 4.65Q20.76 4.65 20.63 4.79Q20.49 4.92 20.49 5.1L20.49 7.2L9.15 7.2Q7.02 7.2 5.22 8.25Q3.42 9.3 2.37 11.1Q1.32 12.9 1.32 15Q1.32 17.04 2.31 18.81Q2.52 19.2 2.91 19.27Q3.3 19.35 3.6 19.17Q3.93 18.96 4.04 18.59Q4.14 18.21 3.96 17.88Q3.21 16.59 3.21 15Q3.21 13.38 4.01 12.03Q4.8 10.68 6.17 9.88Q7.53 9.09 9.15 9.09ZM27.69 11.19Q27.51 10.86 27.12 10.76Q26.73 10.65 26.4 10.83Q26.07 11.01 25.97 11.39Q25.86 11.76 26.04 12.09Q26.79 13.41 26.79 14.97Q26.79 16.59 25.99 17.95Q25.2 19.32 23.84 20.11Q22.47 20.91 20.85 20.91L9.18 20.91L5.46 20.91Q5.28 20.91 5.16 21.05Q5.04 21.18 5.04 21.36Q5.04 21.54 5.16 21.66L8.76 25.2Q8.88 25.32 9.06 25.32Q9.24 25.32 9.38 25.19Q9.51 25.05 9.51 24.87L9.51 22.77L20.85 22.77Q22.98 22.77 24.78 21.72Q26.58 20.67 27.63 18.87Q28.68 17.07 28.68 14.97Q28.68 12.9 27.69 11.19Z" fill="rgba(255,255,255,1)"></path></g></svg>