<?xml version="1.0" standalone="no"?>
<svg xmlns="http://www.w3.org/2000/svg" width="20" height="20"><rect width="20" height="20" opacity="0"></rect><g><path d="M16.66 10Q16.4 10 16.22 10.19Q16.04 10.38 16.04 10.64L16.04 16.66Q16.04 16.92 15.85 17.1Q15.66 17.28 15.4 17.28L13.1 17.28L13.1 13.7Q13.1 12.86 12.68 12.15Q12.26 11.44 11.55 11.02Q10.84 10.6 10 10.6Q9.14 10.6 8.43 11.02Q7.72 11.44 7.3 12.15Q6.88 12.86 6.88 13.7L6.88 17.28L4.56 17.28Q4.32 17.28 4.13 17.09Q3.94 16.9 3.94 16.64L3.94 10.64Q3.94 10.38 3.76 10.19Q3.58 10 3.32 10Q3.06 10 2.88 10.19Q2.7 10.38 2.7 10.64L2.7 16.64Q2.7 17.16 2.95 17.59Q3.2 18.02 3.63 18.27Q4.06 18.52 4.56 18.52L15.4 18.52Q15.9 18.52 16.33 18.27Q16.76 18.02 17.02 17.59Q17.28 17.16 17.28 16.66L17.28 10.64Q17.28 10.38 17.1 10.19Q16.92 10 16.66 10ZM8.14 13.7Q8.14 12.94 8.69 12.39Q9.24 11.84 10 11.84Q10.76 11.84 11.31 12.39Q11.86 12.94 11.86 13.7L11.86 17.28L8.14 17.28L8.14 13.7ZM18.78 9.54Q18.94 9.36 18.94 9.1Q18.94 8.84 18.76 8.66L12.04 2.3Q11.48 1.76 10.74 1.57Q10 1.38 9.26 1.57Q8.52 1.76 7.96 2.3L1.26 8.66Q1.06 8.84 1.06 9.1Q1.06 9.36 1.24 9.56Q1.4 9.72 1.68 9.73Q1.96 9.74 2.12 9.58L8.84 3.2Q9.34 2.72 10.01 2.72Q10.68 2.72 11.18 3.2L17.9 9.56Q18.08 9.74 18.34 9.74Q18.6 9.74 18.78 9.54Z" fill="rgba(0,0,0,0.4)"></path></g></svg>