<?xml version="1.0" standalone="no"?>
<svg xmlns="http://www.w3.org/2000/svg" width="30" height="30"><rect width="30" height="30" opacity="0"></rect><g><path d="M26.07 19.65Q25.23 19.74 23.69 19.72Q22.14 19.71 20.58 19.32Q19.8 19.11 18.74 18Q17.67 16.89 16.26 15.06L16.17 14.94Q17.52 13.17 18.63 12.05Q19.74 10.92 20.67 10.59Q21.51 10.29 23.22 10.26Q24.93 10.23 26.1 10.32Q26.49 10.35 26.78 10.08Q27.06 9.81 27.09 9.42Q27.12 9.03 26.82 8.73L23.25 5.19Q23.1 5.07 22.92 5.07Q22.74 5.07 22.62 5.2Q22.5 5.34 22.5 5.52L22.5 8.43Q20.94 8.52 20.04 8.82Q18.84 9.24 17.64 10.41Q16.44 11.58 15 13.41Q13.53 11.55 12.33 10.4Q11.13 9.24 9.93 8.82Q8.19 8.19 3.75 8.46L3.75 8.46Q3.36 8.49 3.11 8.77Q2.85 9.06 2.88 9.45Q2.91 9.84 3.2 10.09Q3.48 10.35 3.9 10.32Q5.28 10.23 6.89 10.26Q8.49 10.29 9.3 10.59Q10.23 10.92 11.31 12.03Q12.39 13.14 13.8 14.94L13.47 15.36Q12.12 17.1 11.13 18.13Q10.14 19.17 9.39 19.32Q7.83 19.65 6.17 19.7Q4.5 19.74 3.9 19.68L3.87 19.68Q3.51 19.62 3.21 19.88Q2.91 20.13 2.85 20.52Q2.79 20.91 3.05 21.21Q3.3 21.51 3.69 21.54Q5.25 21.6 7.01 21.51Q8.76 21.42 9.84 21.15Q11.01 20.85 12.2 19.71Q13.38 18.57 15 16.5Q16.59 18.57 17.77 19.72Q18.96 20.88 20.13 21.15Q21.33 21.42 22.5 21.51L22.5 24.51Q22.5 24.69 22.62 24.81Q22.74 24.93 22.92 24.93Q23.1 24.93 23.25 24.81L26.85 21.3Q27.15 20.97 27.12 20.55Q27.09 20.13 26.81 19.88Q26.52 19.62 26.1 19.65Z" fill="rgba(255,255,255,1)"></path></g></svg>