<?xml version="1.0" standalone="no"?>
<svg xmlns="http://www.w3.org/2000/svg" width="30" height="30"><rect width="30" height="30" opacity="0"></rect><g><path d="M14.67 6.24Q15.06 6.24 15.33 5.97Q15.6 5.7 15.6 5.31Q15.6 4.92 15.33 4.65Q15.06 4.38 14.67 4.38L4.11 4.38Q3.72 4.38 3.44 4.65Q3.15 4.92 3.15 5.31Q3.15 5.7 3.44 5.97Q3.72 6.24 4.11 6.24L14.67 6.24ZM15.6 12.87Q15.6 12.48 15.33 12.19Q15.06 11.91 14.67 11.91L4.11 11.91Q3.72 11.91 3.44 12.19Q3.15 12.48 3.15 12.87Q3.15 13.26 3.44 13.53Q3.72 13.8 4.11 13.8L14.67 13.8Q15.06 13.8 15.33 13.53Q15.6 13.26 15.6 12.87ZM11.19 16.32Q10.8 16.32 10.53 16.59Q10.26 16.86 10.26 17.25L10.26 19.95Q10.11 19.5 9.69 19.23L5.04 16.56Q4.74 16.38 4.41 16.38Q4.08 16.38 3.78 16.56Q3.48 16.71 3.32 17.01Q3.15 17.31 3.15 17.64L3.15 23.01Q3.15 23.34 3.32 23.64Q3.48 23.94 3.78 24.09Q4.08 24.27 4.39 24.27Q4.71 24.27 5.01 24.12L5.04 24.09L9.69 21.39Q9.9 21.27 10.05 21.09Q10.2 20.91 10.26 20.67L10.26 23.34Q10.26 23.73 10.53 24Q10.8 24.27 11.19 24.27Q11.58 24.27 11.87 24Q12.15 23.73 12.15 23.34L12.15 17.28Q12.15 16.89 11.87 16.6Q11.58 16.32 11.19 16.32ZM5.04 18.69L7.8 20.31L5.04 21.9Z" fill="rgba(255,255,255,1)"></path><path d="M22.92 4.86Q22.29 4.92 21.89 5.4Q21.48 5.88 21.51 6.51L21.51 16.08Q21.48 16.8 21.26 17.2Q21.03 17.61 20.64 17.82Q20.25 18.03 19.41 18.36L19.26 18.42Q19.17 18.45 19.08 18.48Q17.61 19.05 16.67 19.7Q15.72 20.34 15.33 21.45Q14.97 22.32 15.17 23.15Q15.36 23.97 15.99 24.57Q16.62 25.17 17.51 25.42Q18.39 25.68 19.38 25.56Q20.97 25.38 21.9 24.53Q22.83 23.67 23.15 22.58Q23.46 21.48 23.4 20.46L23.4 8.67Q23.46 8.19 23.65 8Q23.85 7.8 24.33 7.62Q24.84 7.47 25.44 7.11Q25.98 6.78 26.33 6.34Q26.67 5.91 26.78 5.41Q26.88 4.92 26.76 4.38L22.92 4.86ZM19.17 23.73Q18.51 23.79 17.97 23.63Q17.43 23.46 17.16 23.07Q16.89 22.68 17.07 22.11Q17.28 21.6 17.84 21.2Q18.39 20.79 19.53 20.28Q20.52 19.86 21.51 19.44L21.51 20.76Q21.51 21.75 21.05 22.67Q20.58 23.58 19.17 23.73Z" fill="rgba(255,255,255,1)"></path></g></svg>